<svg xmlns="http://www.w3.org/2000/svg" id="Layer_2" viewBox="0 0 744.86 342.2">
  <defs>
    <style>
      .cls-1,.cls-2{stroke:#10140c;stroke-miterlimit:10}.cls-2{fill:none;stroke-width:.75px}.cls-3,.cls-5{fill:#161716;stroke-width:0}.cls-5{fill:#fefff0}
    </style>
  </defs>
  <g id="Layer_1-2">
    <circle cx="270.52" cy="315.36" r="2.96" fill="#161716" stroke-width="0" />
    <circle cx="447.38" cy="315.36" r="2.96" fill="#161716" stroke-width="0"/>
    <path d="M140.38 309.37c1.38 1.47 2.07 3.64 2.07 6.5 0 3.01-.68 5.31-2.03 6.89s-3.1 2.37-5.23 2.37c-1.36 0-2.49-.34-3.39-1.02-.49-.38-.97-.93-1.44-1.65v8.91h-4.42v-23.83h4.28v2.53c.48-.74.99-1.33 1.54-1.76.99-.76 2.18-1.14 3.55-1.14 2 0 3.69.74 5.08 2.21Zm-2.54 6.71c0-1.32-.3-2.48-.9-3.5-.6-1.01-1.58-1.52-2.93-1.52-1.62 0-2.74.77-3.34 2.31-.31.82-.47 1.85-.47 3.11 0 1.99.53 3.38 1.58 4.19.63.47 1.37.71 2.23.71 1.24 0 2.19-.48 2.85-1.44.65-.96.98-2.24.98-3.84Zm21.14-6.38c1.44 1.81 2.17 3.95 2.17 6.42s-.72 4.66-2.17 6.44c-1.44 1.78-3.63 2.68-6.57 2.68s-5.13-.89-6.57-2.68c-1.44-1.78-2.17-3.93-2.17-6.44s.72-4.61 2.17-6.42 3.63-2.71 6.57-2.71 5.13.9 6.57 2.71Zm-6.59 1.07c-1.31 0-2.31.46-3.02 1.39-.71.92-1.06 2.25-1.06 3.96s.35 3.04 1.06 3.97 1.71 1.4 3.02 1.4 2.31-.47 3.01-1.4 1.05-2.25 1.05-3.97-.35-3.04-1.05-3.96c-.7-.93-1.71-1.39-3.01-1.39Zm26.55-9.23v23.09h-4.35v-2.37c-.64 1.01-1.37 1.75-2.18 2.21-.82.46-1.83.69-3.04.69-2 0-3.68-.81-5.04-2.42-1.37-1.62-2.05-3.69-2.05-6.22 0-2.92.67-5.21 2.02-6.89s3.14-2.51 5.39-2.51c1.04 0 1.96.23 2.76.68a5.46 5.46 0 0 1 1.96 1.89v-8.16h4.53Zm-12.05 14.65c0 1.58.31 2.84.94 3.78.62.95 1.56 1.43 2.82 1.43s2.23-.47 2.89-1.41c.66-.94.99-2.16.99-3.66 0-2.09-.53-3.59-1.58-4.49-.65-.54-1.4-.82-2.26-.82-1.31 0-2.27.49-2.88 1.48s-.92 2.21-.92 3.68Zm29.95-2.52h-4.58c-.08-.64-.3-1.21-.64-1.73-.5-.69-1.28-1.04-2.34-1.04-1.51 0-2.54.75-3.09 2.24-.29.79-.44 1.85-.44 3.17s.15 2.26.44 3.03c.53 1.42 1.54 2.13 3.01 2.13 1.05 0 1.79-.28 2.23-.85.44-.56.71-1.3.8-2.2h4.57c-.1 1.36-.6 2.65-1.47 3.86-1.4 1.96-3.48 2.93-6.23 2.93s-4.77-.82-6.07-2.45c-1.3-1.63-1.95-3.75-1.95-6.35 0-2.94.72-5.22 2.15-6.86s3.41-2.45 5.93-2.45c2.14 0 3.9.48 5.26 1.44 1.37.96 2.17 2.66 2.42 5.1Zm2.75-4.29c1.18-1.51 3.21-2.26 6.09-2.26 1.87 0 3.54.37 4.99 1.11 1.45.74 2.18 2.14 2.18 4.21v7.84c0 .54.01 1.2.03 1.98.03.59.12.98.27 1.19s.37.38.66.52v.66h-4.86c-.14-.34-.23-.67-.28-.97s-.09-.65-.13-1.04c-.62.67-1.33 1.24-2.13 1.71-.96.55-2.05.83-3.26.83-1.55 0-2.83-.44-3.84-1.33s-1.51-2.14-1.51-3.76c0-2.1.81-3.62 2.43-4.57.89-.51 2.2-.88 3.92-1.1l1.52-.19c.83-.1 1.42-.24 1.77-.39.64-.27.96-.7.96-1.27 0-.7-.24-1.18-.73-1.45s-1.2-.4-2.14-.4c-1.06 0-1.8.26-2.24.78-.31.39-.52.91-.63 1.57h-4.31c.09-1.5.51-2.72 1.26-3.69Zm3.33 12.02c.42.35.93.52 1.54.52.96 0 1.85-.28 2.66-.85s1.23-1.59 1.26-3.09v-1.66c-.28.18-.57.32-.85.43-.29.11-.68.21-1.18.31l-1 .19c-.94.17-1.62.37-2.02.61-.69.41-1.04 1.04-1.04 1.9 0 .76.21 1.31.64 1.65Zm24.72-13.09c1.34.86 2.11 2.33 2.31 4.42h-4.47c-.06-.58-.23-1.03-.49-1.37-.49-.61-1.33-.91-2.51-.91-.97 0-1.67.15-2.08.46-.41.3-.62.66-.62 1.07 0 .51.22.88.66 1.11.44.24 1.99.65 4.66 1.24 1.78.42 3.11 1.05 4 1.9.88.86 1.32 1.93 1.32 3.22 0 1.69-.63 3.08-1.89 4.15-1.26 1.07-3.21 1.61-5.84 1.61s-4.67-.57-5.95-1.7-1.92-2.58-1.92-4.34h4.53c.09.79.3 1.36.61 1.69.55.6 1.58.89 3.08.89.88 0 1.58-.13 2.09-.39.52-.26.78-.65.78-1.18s-.21-.88-.63-1.14c-.42-.26-1.97-.71-4.66-1.35-1.94-.48-3.3-1.08-4.09-1.8-.79-.71-1.19-1.74-1.19-3.08 0-1.58.62-2.94 1.86-4.07 1.24-1.13 2.98-1.7 5.23-1.7s3.88.42 5.22 1.27Zm12.95 13.14v3.34l-2.12.08c-2.11.07-3.56-.29-4.33-1.1-.5-.51-.75-1.3-.75-2.37v-10.53h-2.38v-3.18h2.38v-4.77h4.42v4.77h2.78v3.18h-2.78v9.04c0 .7.09 1.14.27 1.31.18.17.72.26 1.63.26h.43c.15 0 .3-.01.45-.02Zm13.69-13.14c1.34.86 2.11 2.33 2.31 4.42h-4.47c-.06-.58-.23-1.03-.49-1.37-.49-.61-1.33-.91-2.51-.91-.97 0-1.67.15-2.08.46-.41.3-.62.66-.62 1.07 0 .51.22.88.66 1.11.44.24 1.99.65 4.66 1.24 1.78.42 3.11 1.05 4 1.9.88.86 1.32 1.93 1.32 3.22 0 1.69-.63 3.08-1.89 4.15-1.26 1.07-3.21 1.61-5.84 1.61s-4.67-.57-5.95-1.7-1.92-2.58-1.92-4.34h4.53c.09.79.3 1.36.61 1.69.55.6 1.58.89 3.08.89.88 0 1.58-.13 2.09-.39.52-.26.78-.65.78-1.18s-.21-.88-.63-1.14c-.42-.26-1.97-.71-4.66-1.35-1.94-.48-3.3-1.08-4.09-1.8-.79-.71-1.19-1.74-1.19-3.08 0-1.58.62-2.94 1.86-4.07 1.24-1.13 2.98-1.7 5.23-1.7s3.88.42 5.22 1.27Zm37.61 3.35c-1.8 0-3.01.59-3.62 1.76-.35.66-.52 1.67-.52 3.04v8.17h-4.5v-17.1h4.27v2.98c.69-1.14 1.29-1.92 1.8-2.34.84-.7 1.92-1.05 3.26-1.05h.21c.06 0 .19.01.38.02v4.58c-.28-.03-.53-.05-.75-.06-.22-.01-.4-.02-.53-.02Zm17.58 7.95c-.12 1.01-.64 2.04-1.58 3.09-1.46 1.66-3.51 2.49-6.15 2.49-2.18 0-4.1-.7-5.76-2.1-1.66-1.4-2.49-3.68-2.49-6.84 0-2.96.75-5.23 2.25-6.81 1.5-1.58 3.45-2.37 5.84-2.37 1.42 0 2.7.27 3.84.8 1.14.53 2.08 1.38 2.82 2.53.67 1.01 1.1 2.19 1.3 3.53.12.78.16 1.91.14 3.39h-11.7c.06 1.72.6 2.92 1.62 3.61.62.43 1.36.64 2.23.64.92 0 1.67-.26 2.24-.78.31-.28.59-.67.83-1.18h4.57Zm-4.42-5.24c-.07-1.18-.43-2.08-1.07-2.69-.64-.61-1.44-.92-2.39-.92-1.04 0-1.84.32-2.41.97-.57.65-.93 1.53-1.07 2.64h6.95Zm21.49-.7h-4.58c-.08-.64-.3-1.21-.64-1.73-.5-.69-1.28-1.04-2.34-1.04-1.51 0-2.54.75-3.09 2.24-.29.79-.44 1.85-.44 3.17s.15 2.26.44 3.03c.53 1.42 1.54 2.13 3.01 2.13 1.05 0 1.79-.28 2.23-.85.44-.56.71-1.3.8-2.2h4.57c-.1 1.36-.6 2.65-1.47 3.86-1.4 1.96-3.48 2.93-6.23 2.93s-4.77-.82-6.07-2.45c-1.3-1.63-1.95-3.75-1.95-6.35 0-2.94.72-5.22 2.15-6.86s3.41-2.45 5.93-2.45c2.14 0 3.9.48 5.26 1.44 1.37.96 2.17 2.66 2.42 5.1Zm16.37-3.97c1.44 1.81 2.17 3.95 2.17 6.42s-.72 4.66-2.17 6.44c-1.44 1.78-3.63 2.68-6.57 2.68s-5.13-.89-6.57-2.68c-1.44-1.78-2.17-3.93-2.17-6.44s.72-4.61 2.17-6.42 3.63-2.71 6.57-2.71 5.13.9 6.57 2.71Zm-6.59 1.07c-1.31 0-2.31.46-3.02 1.39-.71.92-1.06 2.25-1.06 3.96s.35 3.04 1.06 3.97 1.71 1.4 3.02 1.4 2.31-.47 3.01-1.4 1.05-2.25 1.05-3.97-.35-3.04-1.05-3.96c-.7-.93-1.71-1.39-3.01-1.39Zm19.59.89c-1.8 0-3.01.59-3.62 1.76-.35.66-.52 1.67-.52 3.04v8.17h-4.5v-17.1h4.27v2.98c.69-1.14 1.29-1.92 1.8-2.34.84-.7 1.92-1.05 3.26-1.05h.21c.06 0 .19.01.38.02v4.58c-.28-.03-.53-.05-.75-.06-.22-.01-.4-.02-.53-.02Zm18.51-10.12v23.09h-4.35v-2.37c-.64 1.01-1.37 1.75-2.18 2.21-.82.46-1.83.69-3.04.69-2 0-3.68-.81-5.04-2.42-1.37-1.62-2.05-3.69-2.05-6.22 0-2.92.67-5.21 2.02-6.89s3.14-2.51 5.39-2.51c1.04 0 1.96.23 2.76.68a5.46 5.46 0 0 1 1.96 1.89v-8.16h4.53Zm-12.05 14.65c0 1.58.31 2.84.94 3.78.62.95 1.56 1.43 2.82 1.43s2.23-.47 2.89-1.41c.66-.94.99-2.16.99-3.66 0-2.09-.53-3.59-1.58-4.49-.65-.54-1.4-.82-2.26-.82-1.31 0-2.27.49-2.88 1.48s-.92 2.21-.92 3.68Zm19.74-14.83v4.13h-4.53v-4.13h4.53Zm0 6.17v17.1h-4.53v-17.1h4.53Zm11.42 3.31c-1.52 0-2.56.64-3.12 1.93-.29.68-.44 1.55-.44 2.6v9.26h-4.46v-17.07h4.31v2.5c.58-.88 1.12-1.51 1.63-1.9.92-.69 2.09-1.04 3.5-1.04 1.77 0 3.21.46 4.34 1.39 1.12.93 1.69 2.46 1.69 4.61v11.52h-4.58v-10.4c0-.9-.12-1.59-.36-2.07-.44-.88-1.28-1.32-2.51-1.32Zm15.44 16.79c.48.41 1.29.61 2.43.61 1.61 0 2.69-.54 3.23-1.62.36-.69.53-1.85.53-3.48v-1.1c-.43.73-.89 1.28-1.38 1.65-.89.68-2.05 1.02-3.47 1.02-2.2 0-3.95-.77-5.26-2.31s-1.97-3.63-1.97-6.27.63-4.68 1.9-6.41c1.27-1.73 3.06-2.6 5.38-2.6.86 0 1.61.13 2.24.39 1.09.45 1.97 1.28 2.64 2.48v-2.46h4.35v16.22c0 2.21-.37 3.87-1.11 4.99-1.28 1.92-3.72 2.89-7.34 2.89-2.19 0-3.97-.43-5.35-1.29-1.38-.86-2.14-2.14-2.29-3.84h4.86c.13.52.33.9.61 1.13Zm-.75-8.83c.61 1.44 1.69 2.17 3.26 2.17 1.05 0 1.93-.4 2.65-1.18.72-.79 1.08-2.05 1.08-3.77 0-1.62-.34-2.86-1.03-3.7-.69-.85-1.6-1.27-2.75-1.27-1.57 0-2.65.74-3.25 2.21-.31.78-.47 1.75-.47 2.9 0 .99.17 1.88.5 2.65Zm26.37-10.49c1.34.86 2.11 2.33 2.31 4.42h-4.47c-.06-.58-.23-1.03-.49-1.37-.49-.61-1.33-.91-2.51-.91-.97 0-1.67.15-2.08.46-.41.3-.62.66-.62 1.07 0 .51.22.88.66 1.11.44.24 1.99.65 4.66 1.24 1.78.42 3.11 1.05 4 1.9.88.86 1.32 1.93 1.32 3.22 0 1.69-.63 3.08-1.89 4.15-1.26 1.07-3.21 1.61-5.84 1.61s-4.67-.57-5.95-1.7-1.92-2.58-1.92-4.34h4.53c.09.79.3 1.36.61 1.69.55.6 1.58.89 3.08.89.88 0 1.58-.13 2.09-.39.52-.26.78-.65.78-1.18s-.21-.88-.63-1.14c-.42-.26-1.97-.71-4.66-1.35-1.94-.48-3.3-1.08-4.09-1.8-.79-.71-1.19-1.74-1.19-3.08 0-1.58.62-2.94 1.86-4.07 1.24-1.13 2.98-1.7 5.23-1.7s3.88.42 5.22 1.27Zm21.14-6.8h4.47v23.13h-4.47v-23.13Zm22.51 18.1c-.12 1.01-.64 2.04-1.58 3.09-1.46 1.66-3.51 2.49-6.15 2.49-2.18 0-4.1-.7-5.76-2.1-1.66-1.4-2.49-3.68-2.49-6.84 0-2.96.75-5.23 2.25-6.81 1.5-1.58 3.45-2.37 5.84-2.37 1.42 0 2.7.27 3.84.8 1.14.53 2.08 1.38 2.82 2.53.67 1.01 1.1 2.19 1.3 3.53.12.78.16 1.91.14 3.39h-11.7c.06 1.72.6 2.92 1.62 3.61.62.43 1.36.64 2.23.64.92 0 1.67-.26 2.24-.78.31-.28.59-.67.83-1.18h4.57Zm-4.42-5.24c-.07-1.18-.43-2.08-1.07-2.69-.64-.61-1.44-.92-2.39-.92-1.04 0-1.84.32-2.41.97-.57.65-.93 1.53-1.07 2.64h6.95Zm7.33-4.99c1.18-1.51 3.21-2.26 6.09-2.26 1.87 0 3.54.37 4.99 1.11 1.45.74 2.18 2.14 2.18 4.21v7.84c0 .54.01 1.2.03 1.98.03.59.12.98.27 1.19s.37.38.66.52v.66h-4.86c-.14-.34-.23-.67-.28-.97s-.09-.65-.13-1.04c-.62.67-1.33 1.24-2.13 1.71-.96.55-2.05.83-3.26.83-1.55 0-2.83-.44-3.84-1.33s-1.51-2.14-1.51-3.76c0-2.1.81-3.62 2.43-4.57.89-.51 2.2-.88 3.92-1.1l1.52-.19c.83-.1 1.42-.24 1.77-.39.64-.27.96-.7.96-1.27 0-.7-.24-1.18-.73-1.45s-1.2-.4-2.14-.4c-1.06 0-1.8.26-2.24.78-.31.39-.52.91-.63 1.57h-4.31c.09-1.5.51-2.72 1.26-3.69Zm3.33 12.02c.42.35.93.52 1.54.52.96 0 1.85-.28 2.66-.85s1.23-1.59 1.26-3.09v-1.66c-.28.18-.57.32-.85.43-.29.11-.68.21-1.18.31l-1 .19c-.94.17-1.62.37-2.02.61-.69.41-1.04 1.04-1.04 1.9 0 .76.21 1.31.64 1.65Zm21.53-9.74c-1.8 0-3.01.59-3.62 1.76-.35.66-.52 1.67-.52 3.04v8.17h-4.5v-17.1h4.27v2.98c.69-1.14 1.29-1.92 1.8-2.34.84-.7 1.92-1.05 3.26-1.05h.21c.06 0 .19.01.38.02v4.58c-.28-.03-.53-.05-.75-.06-.22-.01-.4-.02-.53-.02Zm10.99-.82c-1.52 0-2.56.64-3.12 1.93-.29.68-.44 1.55-.44 2.6v9.26h-4.46v-17.07h4.31v2.5c.58-.88 1.12-1.51 1.63-1.9.92-.69 2.09-1.04 3.5-1.04 1.77 0 3.21.46 4.34 1.39 1.12.93 1.69 2.46 1.69 4.61v11.52h-4.58v-10.4c0-.9-.12-1.59-.36-2.07-.44-.88-1.28-1.32-2.51-1.32Zm15.22-9.48v4.13h-4.53v-4.13h4.53Zm0 6.17v17.1h-4.53v-17.1h4.53Zm11.41 3.31c-1.52 0-2.56.64-3.12 1.93-.29.68-.44 1.55-.44 2.6v9.26h-4.46v-17.07h4.31v2.5c.58-.88 1.12-1.51 1.63-1.9.92-.69 2.09-1.04 3.5-1.04 1.77 0 3.21.46 4.34 1.39 1.12.93 1.69 2.46 1.69 4.61v11.52h-4.58v-10.4c0-.9-.12-1.59-.36-2.07-.44-.88-1.28-1.32-2.51-1.32Zm15.45 16.79c.48.41 1.29.61 2.43.61 1.61 0 2.69-.54 3.23-1.62.36-.69.53-1.85.53-3.48v-1.1c-.43.73-.89 1.28-1.38 1.65-.89.68-2.05 1.02-3.47 1.02-2.2 0-3.95-.77-5.26-2.31s-1.97-3.63-1.97-6.27.63-4.68 1.9-6.41c1.27-1.73 3.06-2.6 5.38-2.6.86 0 1.61.13 2.24.39 1.09.45 1.97 1.28 2.64 2.48v-2.46h4.35v16.22c0 2.21-.37 3.87-1.11 4.99-1.28 1.92-3.72 2.89-7.34 2.89-2.19 0-3.97-.43-5.35-1.29-1.38-.86-2.14-2.14-2.29-3.84h4.86c.13.52.33.9.61 1.13Zm-.75-8.83c.61 1.44 1.69 2.17 3.26 2.17 1.05 0 1.93-.4 2.65-1.18.72-.79 1.08-2.05 1.08-3.77 0-1.62-.34-2.86-1.03-3.7-.69-.85-1.6-1.27-2.75-1.27-1.57 0-2.65.74-3.25 2.21-.31.78-.47 1.75-.47 2.9 0 .99.17 1.88.5 2.65Zm26.36-10.49c1.34.86 2.11 2.33 2.31 4.42h-4.47c-.06-.58-.23-1.03-.49-1.37-.49-.61-1.33-.91-2.51-.91-.97 0-1.67.15-2.08.46-.41.3-.62.66-.62 1.07 0 .51.22.88.66 1.11.44.24 1.99.65 4.66 1.24 1.78.42 3.11 1.05 4 1.9.88.86 1.32 1.93 1.32 3.22 0 1.69-.63 3.08-1.89 4.15-1.26 1.07-3.21 1.61-5.84 1.61s-4.67-.57-5.95-1.7-1.92-2.58-1.92-4.34h4.53c.09.79.3 1.36.61 1.69.55.6 1.58.89 3.08.89.88 0 1.58-.13 2.09-.39.52-.26.78-.65.78-1.18s-.21-.88-.63-1.14c-.42-.26-1.97-.71-4.66-1.35-1.94-.48-3.3-1.08-4.09-1.8-.79-.71-1.19-1.74-1.19-3.08 0-1.58.62-2.94 1.86-4.07 1.24-1.13 2.98-1.7 5.23-1.7s3.88.42 5.22 1.27Z" fill="#161716" stroke-width="0"/>
    <path d="M352.69 342.2c-140.4 0-250.38-11.79-250.38-26.83s109.98-26.83 250.38-26.83 250.38 11.79 250.38 26.83-109.98 26.83-250.38 26.83Zm0-52.66c-135.18 0-249.38 11.83-249.38 25.83s114.2 25.83 249.38 25.83 249.38-11.83 249.38-25.83-114.2-25.83-249.38-25.83Z" fill="#161716" stroke-width="0"/>
    <path fill="#f43f08" stroke-width="0" d="m60.92 213.33-1.29 22.59H0v-90.35h27.1v67.76h33.82Zm5.16 22.59v-90.35h58.34l-1.29 21.3H93.19v14.2h28.65v20.01H93.19v13.55h32.53l-1.29 21.3H66.09Zm125.33 0-5.29-15.88h-29.56l-5.16 15.88h-26.33l32.27-87.12 28.4-4.78 33.82 91.9h-28.14Zm-28.4-35.88h16.39l-8.39-24.91-8 24.91Zm85.58 4.64v31.24h-27.1v-90.35c2.41-.26 5.38-.52 8.91-.77 3.53-.26 7.08-.45 10.65-.58 3.57-.13 6.6-.19 9.1-.19 9.81 0 17.83 1.25 24.07 3.74 6.24 2.5 10.84 5.9 13.81 10.2 2.97 4.3 4.45 9.16 4.45 14.58s-1.21 10.05-3.61 14.65c-2.41 4.6-6.11 8.41-11.1 11.42l18.97 37.3h-29.3l-14.46-31.24h-4.39Zm0-17.94h4.78c.52 0 1.01-.02 1.48-.06.47-.04.97-.11 1.48-.19 3.1-.6 5.38-2.02 6.84-4.26 1.46-2.24 2.19-4.78 2.19-7.62 0-3.36-.93-6.07-2.78-8.13-1.85-2.06-4.5-3.1-7.94-3.1h-6.07v23.36Zm111 49.18-33.82-48.79v48.79h-24.52v-90.35h23.88l35.11 52.02v-52.02h24.52v90.35h-25.17Zm135.14 0-16.26-53.95-16 53.95h-26.98l-24.27-90.35h27.1l12.52 57.69 14.97-57.69h26.59l17.17 58.86 11.75-58.86h25.81l-25.43 90.35h-26.98Zm82.73 0h-27.1v-90.35h27.1v90.35Zm4.52-68.41 1.29-21.94h75.38l-1.29 21.94h-23.49v68.41h-27.1v-68.41h-24.78Zm135.78 68.41v-33.69h-27.49v33.69h-27.1v-90.35h27.1v34.72h27.49v-34.72h27.1v90.35h-27.1Z"/>
    <path d="M414.53 68.45c2.11-.33 3.75.68 5.52 1.15 1.54.41 3.07.83 4.61 1.25.09.03.23.04.27.11.69 1.17 2.1.95 3.07 1.59.28.19.64.26.88.53.41.47.9.66 1.53.78.71.14 1.43.44 1.97.95.48.47.96.84 1.67.77.2-.02.47.07.5.25.13.77.85.88 1.33 1.26 1.89 1.5 3.77 3 5.41 4.78.55.6 1.3 1.05 1.89 1.56.58.49 1.23 1.12 1.75 1.8.96 1.26 1.31 2.88 2.52 3.95.19.17.36.37.34.63-.05.85.38 1.59.53 2.37.79 3.91 1.38 7.89.65 11.85-.27 1.44-.21 3.03-1.09 4.35.24 1.68-.91 2.96-1.36 4.44-.3.98-.29 2.26-1.37 2.94-.34.21-.31.6-.3.94 0 .47 0 .9-.65.92-.38.01-.45.29-.49.61-.12 1.01-.75 1.78-1.23 2.63-.95 1.71-2.31 3.1-3.37 4.71-.44.67-.88 1.32-1.49 1.82-1.74 1.42-2.83 3.39-4.36 4.99-.16.17-.22.43-.31.65-.08.18-.2.47-.37.33-.79-.71-1.01.16-1.37.49-.77.69-1.53 1.41-2.21 2.19-1.82 2.1-4.22 3.55-6.22 5.46-.9.86-2.16 1.36-3.26 1.99-1.49.86-3.01 1.71-4.44 2.65-1.26.83-2.69 1.3-3.97 2.1-1.44.9-3.23 1.3-4.82 1.98-1.43.61-3.11.46-4.36 1.54-.1.09-.28.17-.41.15-1.66-.27-3.15.66-4.76.68-1.24.02-2.37.7-3.63.55-1.37.98-2.93.43-4.41.58-.58.06-1.18-.08-1.66.43-.24.26-.66.15-1 .16-2.37.1-4.77.26-7.11-.06-1.63-.23-3.3-.3-4.87-.65-1.88-.42-3.76-.8-5.65-1.17-1.33-.26-2.79-.38-4.01-1.18-.32-.21-.7-.38-1.08-.46-.71-.15-1.06.22-1.25.91-.49 1.71-1.22 3.33-2.06 4.9-1.01 1.9-2.31 3.55-3.93 4.96-.83.72-1.71 1.33-2.79 1.63-.39.11-.88.11-1.08.64-.09.24-.43.23-.66.25-2.56.22-5.21.58-7.66-.16a34.18 34.18 0 0 1-7.34-3.22c-2.31-1.37-4.3-3.13-6.28-4.93-5.35-4.87-8.99-10.97-12.48-17.17-1.33-2.36-2.41-4.86-3.51-7.34-.14-.32-.27-.63-.43-.94-.12-.23-.3-.39-.58-.39-.4 0-.45.31-.5.61-.19 1.22-.36 2.44-.57 3.65-.76 4.45-1.93 8.76-4.33 12.65-.39.63-.83 1.23-1.32 1.78-2.44 2.79-5.73 3.66-9.26 2.49-1.62-.54-3.05-1.42-4.35-2.49-2.77-2.29-5.08-4.97-6.63-8.24-.08-.17-.2-.33-.34-.55-.81 1.25-1.57 2.47-2.37 3.64-1.09 1.59-2.4 3.01-3.68 4.45-3.01 3.41-6.82 4.95-11.3 5-6.29.07-11.96-1.87-17.06-5.47-6.96-4.93-12.15-11.37-16.04-18.9-1.54-2.98-2.99-6-4.15-9.34-.76 1.05-1.08 2.11-1.34 3.17-.34 1.34-.71 2.66-1.24 3.95-1.55 3.76-3.6 7.26-6.06 10.48-1.86 2.44-4.19 4.46-6.84 6.06-2.07 1.25-4.35 1.44-6.71 1.28-2.83-.2-5.42-1.07-7.8-2.57-.69-.43-1.12-.08-1.56.3-2.67 2.22-5.63 4.01-8.59 5.8-7.75 4.7-16.07 7.96-24.94 9.92-9.12 2.01-18.3 2.37-27.57 1.72-5.14-.36-10.18-1.32-15.17-2.53-.91-.22-1.9-.24-2.75-.59-2.43-1.02-4.98-1.71-7.4-2.75-3.13-1.34-6.29-2.6-9.32-4.16-7.4-3.81-13.77-8.85-19-15.32-1.98-2.45-3.19-5.32-4.27-8.24-1.64-4.42-2.14-9-1.78-13.68.17-2.28.94-4.42 1.69-6.57 1.18-3.42 2.73-6.68 4.66-9.71 1.91-2.99 4.34-5.6 7.09-7.88 2.25-1.86 4.55-3.63 7.02-5.2.21-.13.43-.25.62-.41 5.02-4.02 10.82-6.69 16.58-9.42.67-.32 1.37-.57 2.02-1.17-1.05-.63-2.19-.85-3.28-1.19-3.2-1.01-6.31-2.25-9.29-3.8-1.98-1.03-3.92-2.08-5.56-3.62-1.62-1.53-3.22-3.07-3.96-5.27-.25-.75-.42-1.51-.5-2.3-.35-3.54.31-6.96 1.06-10.39.67-3.08 2.06-5.85 3.51-8.59 2.97-5.6 7.1-10.3 11.74-14.57 1.86-1.7 3.93-3.15 6.07-4.49 2.34-1.47 4.71-2.91 7.01-4.45 2.31-1.55 4.77-2.8 7.26-4.01 1.43-.7 2.82-1.47 4.04-2.47 1.75-1.44 3.72-2.45 5.83-3.18 4.3-1.48 8.67-2.79 13.28-2.83 4.21-.03 8.4.18 12.53 1.11 1.6.36 3.1 1 4.59 1.66 3.2 1.42 6.41 2.82 9.22 5.01 2.53 1.97 4.27 4.5 5.61 7.34 1 2.12 1.07 4.36.54 6.65-1.49 6.41-5 11.35-10.53 14.97-3.42 2.24-7.12 3.84-10.87 5.38-5.3 2.18-10.72 4.05-16.19 5.75-1.51.47-3.05.83-4.53 1.37-.18.06-.39.08-.47.43.43.55 1.17.54 1.79.68 1.78.41 3.59.7 5.36 1.15 3.96 1.02 7.57 2.87 11.11 4.84 1.94 1.08 3.86 2.2 5.67 3.51 1.87 1.35 3.4 2.98 4.58 4.97 1.8 3.02 1.42 6.17-1.15 8.6-1 .95-2.04 1.88-3.17 2.67-2.25 1.58-4.28 3.52-6.92 4.51-.58.22-.97.64-1.2 1.2.08.29.32.24.49.23 2.03-.12 4.04.22 6.05.31 3.25.15 6.34 1 9.47 1.7 3.56.81 6.99 2.12 10.44 3.31 1.08.37 1.15.39 1.38-.69.5-2.36.94-4.74 1.39-7.11.97-5.14 2.34-10.17 3.88-15.17 1.57-5.09 3.21-10.15 5.35-15.04 1.8-4.11 3.65-8.2 5.65-12.22.35-.7.73-1.41 1.21-2.03 1.98-2.51 3.76-5.2 6.58-6.94 1.74-1.08 3.64-1.78 5.55-2.44 3.03-1.06 5.99-2.31 9.17-2.92 4.55-.86 9.03-.47 13.52.54 4.22.95 8.02 2.73 11.55 5.18 3.81 2.65 7.65 5.24 10.96 8.56 3.61 3.63 6.57 7.75 9.4 11.98 2.92 4.37 5.08 9.13 7.23 13.9.38.85.88 1.64 1.38 2.56.23-.76.52-1.51.67-2.28.8-3.91 1.81-7.77 2.91-11.61.93-3.27 1.95-6.51 3.09-9.71 1.32-3.67 3.11-7.14 4.65-10.71.08-.18.16-.36.27-.52 3.06-4.48 5.61-9.33 9.4-13.27 4.17-4.33 8.9-7.83 15.06-8.85 2.88-.48 5.73-.11 8.53.52 10.37 2.33 19.51 6.92 26.88 14.72 1.37 1.45 2.55 3.02 3.52 4.74 2.39 4.23 4.38 8.62 5.33 13.41.08.39.15.78.19 1.17.03.39 0 .79 0 1.11 2.57-.94 4.44-2.97 6.78-4.3 1.02-.58 1.96-1.34 3.07-1.74 1.46-.52 2.8-1.32 4.32-1.68.37-.09.72-.31 1.07-.48 1.18-.54 2.47-.83 3.62-1.36.88-.4 1.88-.28 2.69-.94.52-.42 1.34-.12 2.03-.17.58-.05 1.23.1 1.3-.8.03-.37.42-.35.71-.36 5.88-.23 11.75-.77 17.63-.14.83.09 1.68.11 2.52.12.76 0 1.47.01 1.97.74.26.38.75.44 1.21.44.79 0 1.58 0 2.37.02.52.02 1.05.28 1.5.34 1.55.21 2.85 1.23 4.32 1.33 1.91.13 3.41 1.23 5.15 1.69.79.21 1.44.87 2.34.83.25-.01.44.19.61.38.17.18.31.42.52.52.74.37 1.92.04 2.08 1.33.92.18 1.48.96 2.22 1.42 1.25.78 2.34 1.79 2.99 3.19.33.71.76 1.36 1.25 1.99.8 1.03.5 2.26.2 3.38-.45 1.65-1.11 3.24-1.65 4.87-.36 1.06-1.12 2.05-1.95 2.89-2.12 2.14-4.39 4.1-7.05 5.56-.99.54-1.66 1.55-2.77 1.93-.18.06-.36.3-.51.27-1.23-.24-2.18.76-3.37.7-.28-.01-.62.07-.85.23-1.24.88-2.64 1-4.1.94-.19 0-.39 0-.72.56ZM385.22 93.9q-1.39-1.11-2.68-1.18c-.34-.02-.8.05-1-.13-.58-.56-1.27-.43-1.94-.46-.43-.02-.93.12-1.24-.3-.6-.84-1.44-.94-2.37-.89-.29.02-.67.06-.87-.09-1.76-1.32-4.23-1.1-5.87-2.68-.15-.15-.46-.15-.7-.18-.3-.03-.56-.08-.83-.26a60.182 60.182 0 0 0-6.09-3.61c-.72-.37-1.31-.85-1.91-1.37-1.46-1.27-2.12-3.21-3.78-4.26-1.4 2.87-3.3 5.5-5.42 7.95-1.77 2.05-3.7 3.97-6.19 5.21-1.07.53-1.12.81-.32 1.77 1.55 1.87 2.87 3.89 4.29 5.84 2.01 2.75 4.08 5.45 6.1 8.19.47.64.94 1.26 1.73 1.82.26-1.02.96-1.57 1.87-1.94.3-.12.55-.42.78-.67.78-.85 1.69-1.5 2.72-2 .3-.14.73-.18.79-.59.09-.67.53-.73 1.06-.71.3 0 .6-.07.81-.3.65-.73 1.6-.96 2.38-1.47 2.13-1.4 4.58-2.27 6.59-3.88.25-.2.53-.25.83-.26.35 0 .65-.26.92-.31 1.34-.24 2.49-.87 3.71-1.4.86-.38 1.8-.95 2.88-.72.3.06.54-.23.72-.46.49-.6 1.13-.73 1.86-.68.39.03.78 0 1.17 0Z" stroke="#10140c" stroke-miterlimit="10"/>
    <path d="M446.43 95.87c.75 3.37.69 6.65-.36 9.92-.57 1.78-1.17 3.55-1.83 5.3-1.96 5.26-4.54 10.19-8.29 14.42-4.69 5.29-9.63 10.35-15.53 14.34-6.3 4.28-13.15 7.43-20.53 9.33-2.44.63-4.96.89-7.44 1.31-4.01.68-8.05.87-12.1.73-7.9-.27-15.56-1.7-22.41-5.83-4.46-2.68-7.59-6.56-9.01-11.67-.18-.63-.24-1.26-.24-1.9 0-1.53.06-3.06-.01-4.58-.12-2.34.56-4.47 1.49-6.56 1.65-3.68 4.23-6.65 7.16-9.33 3.07-2.82 6.46-5.19 10.16-7.12 6.45-3.38 13.22-5.99 20.13-8.25 1.45-.48 2.9-.97 4.35-1.46.56-.18 1.11-.41 1.59-.77.29-.22.49-.5.42-.89-.08-.4-.38-.54-.74-.62-.73-.14-1.46-.27-2.18-.42-6.49-1.32-12.89-3-19.1-5.32-2-.75-3.93-1.62-5.81-2.62-5.32-2.82-8.92-7.16-11.33-12.64-1.61-3.68-1.65-7.36-.53-11.13 1.28-4.27 3.82-7.76 7.07-10.76 6.21-5.73 13.62-9.39 21.59-12 3.56-1.17 7.2-2.13 10.96-2.51 2.01-.21 4.12-.55 6.05-.17 3.29.66 6.68.56 9.93 1.56 1.68.52 3.48.66 5.23 1 5.33 1.03 10.37 2.85 14.96 5.8 1.29.83 2.48 1.79 3.55 2.89 1.32 1.34 1.72 2.88 1.29 4.74-1.08 4.65-4.05 7.8-7.93 10.26-3.04 1.92-6.43 2.99-9.89 3.86-.14.04-.3.04-.43.09-3.82 1.42-7.77 1.87-11.83 1.47-2.36-.01-4.73.2-7.1-.12-.56-.07-1.26-.2-1.54.5-.23.58.39 1.21 1.39 1.39 1.17.2 2.34.41 3.52.49 3.77.23 7.39 1.25 11.09 1.91 7.56 1.34 14.43 4.41 21.01 8.18 3.78 2.16 6.93 5.07 9.54 8.54 1.93 2.57 2.98 5.49 3.67 8.62Z" fill="#fefff0" stroke-width="0"/>
    <path d="M404.85 66.34c4.05.4 8-.05 11.83-1.47.13-.05.29-.05.43-.09 3.46-.87 6.85-1.94 9.89-3.86 3.88-2.45 6.85-5.6 7.93-10.26.43-1.86.03-3.4-1.29-4.74a20.12 20.12 0 0 0-3.55-2.89c-4.59-2.95-9.62-4.77-14.96-5.8-1.75-.34-3.55-.48-5.23-1-3.25-1-6.64-.9-9.93-1.56-1.93-.38-4.04-.04-6.05.17-3.75.38-7.39 1.34-10.96 2.51-7.97 2.6-15.38 6.26-21.59 12-3.25 2.99-5.79 6.48-7.07 10.76-1.12 3.76-1.08 7.44.53 11.13 2.4 5.47 6 9.81 11.33 12.64 1.88 1 3.81 1.87 5.81 2.62 6.21 2.32 12.61 4 19.1 5.32.72.15 1.45.28 2.18.42.36.08.66.22.74.62.07.39-.13.67-.42.89-.48.36-1.03.59-1.59.77-1.45.49-2.9.98-4.35 1.46-6.91 2.26-13.68 4.87-20.13 8.25-3.7 1.93-7.09 4.3-10.16 7.12-2.93 2.68-5.51 5.65-7.16 9.33-.93 2.09-1.61 4.22-1.49 6.56.07 1.52.01 3.05.01 4.58 0 .64.06 1.27.24 1.9 1.42 5.1 4.55 8.98 9.01 11.67 6.85 4.13 14.51 5.56 22.41 5.83 4.04.14 8.08-.05 12.1-.73 2.48-.42 5-.68 7.44-1.31 7.38-1.9 14.23-5.05 20.53-9.33 5.89-3.99 10.84-9.04 15.53-14.34 3.75-4.22 6.33-9.15 8.29-14.42.66-1.75 1.26-3.52 1.83-5.3 1.05-3.27 1.11-6.55.36-9.92-.69-3.13-1.74-6.05-3.67-8.62-2.61-3.47-5.76-6.38-9.54-8.54-6.58-3.77-13.45-6.84-21.01-8.18-3.69-.66-7.31-1.68-11.09-1.91-1.18-.08-2.35-.29-3.52-.49-1-.18-1.62-.81-1.39-1.39.28-.7.98-.57 1.54-.5 2.37.32 4.74.11 7.1.12Z" stroke="#10140c" stroke-miterlimit="10" fill="none" stroke-width=".75px" />
    <path d="M360.72 45.84c.11.61-.21 1.05-.58 1.45-.6.66-1.21 1.31-1.87 1.9-1.49 1.34-2.53 3-3.49 4.73-.26.47-.53.93-.85 1.37-.57.81-1.11 1.63-1.13 2.67-.01.51-.16 1-.55 1.34-.55.48-.6 1.08-.6 1.74-.01 1.27.06 2.52-.5 3.76-.29.63-.28 1.52.06 2.17.42.79.46 1.59.44 2.42-.01.66.02 1.28.6 1.74.28.21.45.55.47.89.06.78.39 1.55.86 2.01 1.26 1.24.61 2.28-.04 3.41-2.27 3.91-4.9 7.52-8.54 10.31-1.32 1.02-2.72 1.74-4.41 1.93-1.31.15-1.57.67-1.05 1.91.25.59.56 1.17.93 1.68 3.39 4.67 6.68 9.41 10.41 13.85.86 1.02 1.57 2.16 2.37 3.22.27.35.38.67.13 1.07-.89 1.4-1.79 2.79-3.09 3.86-.51.42-.69 1.06-1.02 1.58-1.05 1.63-1.88 3.34-2.43 5.27-.99 3.46-.32 6.93-.59 10.38-.11 1.51.86 2.78.78 4.27-.02.21.32.47.53.67.33.32.51.67.57 1.15.11 1.01.56 1.94 1.35 2.53 1.47 1.11 2.53 2.59 3.81 3.86 1.7 1.68 3.55 3.11 5.74 4.09.36.16.69.38 1.03.57.36.19.46.43.3.84-.93 2.28-1.71 4.62-3.24 6.62-.85 1.1-1.79 2.1-2.97 2.86-1.36.86-2.82 1.3-4.45 1.44-4.24.36-8-1.01-11.53-3.12-5.59-3.35-9.76-8.11-13.33-13.48-4.2-6.3-7.46-13.11-10.7-19.93-.23-.49-.44-.98-.92-1.31-.91-.63-2-.24-2.08.87-.23 3.5-1.01 6.91-1.58 10.37-.54 3.26-1.57 6.41-3.07 9.38-.46.92-1.1 1.73-1.79 2.52-2.25 2.57-6.07 2.43-8.27 1.1-2.41-1.45-4.45-3.24-6.14-5.48-2.46-3.25-3.91-6.94-4.94-10.84-1.48-5.63-2.6-11.32-3.16-17.13s-.5-11.63-.54-16.94c0-2.47.02-4.44 0-6.41-.04-4 .25-7.96.74-11.94.74-6.02 1.74-12 2.95-17.94.61-2.99 1.49-5.92 2.14-8.9.89-4.09 2.83-7.76 4.4-11.59.94-2.27 2.03-4.48 3.08-6.71 1.09-2.33 2.72-4.34 4.19-6.43 1.77-2.5 3.67-4.91 5.82-7.09 2.97-3.01 6.28-5.55 10.24-7.19 1.95-.81 4.06-1.28 6.07-1.18 3.17.16 6.38.54 9.43 1.68 3.2 1.19 6.39 2.36 9.45 3.87 5.24 2.56 9.54 6.29 13.38 10.62.82.93 1.47 1.99 2.06 3.07 1.94 3.55 3.68 7.2 4.52 11.21.23 1.1.4 2.23.6 3.34Z" fill="#fefff0" stroke-width="0"/>
    <path d="M281.63 97.45c.04 5.31-.02 11.13.54 16.94s1.68 11.5 3.16 17.13c1.03 3.89 2.48 7.58 4.94 10.84 1.69 2.24 3.73 4.03 6.14 5.48 2.2 1.33 6.02 1.47 8.27-1.1.69-.79 1.33-1.6 1.79-2.52 1.5-2.97 2.53-6.12 3.07-9.38.57-3.45 1.35-6.86 1.58-10.37.08-1.11 1.17-1.5 2.08-.87.48.33.69.82.92 1.31 3.23 6.82 6.49 13.63 10.7 19.93 3.56 5.36 7.73 10.12 13.33 13.48 3.52 2.11 7.28 3.48 11.53 3.12 1.63-.14 3.09-.58 4.45-1.44 1.18-.76 2.12-1.76 2.97-2.86 1.53-2 2.31-4.34 3.24-6.62.16-.41.06-.65-.3-.84-.34-.19-.67-.41-1.03-.57-2.19-.98-4.04-2.41-5.74-4.09-1.28-1.27-2.34-2.75-3.81-3.86-.79-.59-1.24-1.52-1.35-2.53-.06-.48-.24-.83-.57-1.15-.21-.2-.55-.46-.53-.67.08-1.49-.89-2.76-.78-4.27.27-3.44-.4-6.91.59-10.38.55-1.93 1.38-3.64 2.43-5.27.33-.52.51-1.16 1.02-1.58 1.3-1.07 2.2-2.46 3.09-3.86.25-.4.14-.72-.13-1.07-.8-1.06-1.51-2.2-2.37-3.22-3.72-4.43-7.01-9.17-10.41-13.85-.37-.51-.68-1.09-.93-1.68-.52-1.24-.26-1.76 1.05-1.91 1.69-.19 3.09-.91 4.41-1.93 3.64-2.78 6.27-6.39 8.54-10.31.65-1.13 1.3-2.17.04-3.41-.47-.46-.8-1.23-.86-2.01-.02-.34-.19-.68-.47-.89-.58-.46-.61-1.08-.6-1.74.02-.83-.02-1.63-.44-2.42-.34-.65-.35-1.54-.06-2.17.56-1.24.49-2.49.5-3.76 0-.66.05-1.26.6-1.74.39-.34.54-.83.55-1.34.02-1.04.56-1.86 1.13-2.67.32-.44.59-.9.85-1.37.96-1.73 2-3.39 3.49-4.73.66-.59 1.27-1.24 1.87-1.9.37-.4.69-.84.58-1.45-.2-1.11-.37-2.24-.6-3.34-.84-4-2.58-7.65-4.52-11.21-.59-1.08-1.24-2.14-2.06-3.07-3.83-4.32-8.13-8.05-13.38-10.62-3.06-1.51-6.25-2.68-9.45-3.87-3.05-1.14-6.26-1.52-9.43-1.68-2.01-.1-4.12.37-6.07 1.18-3.95 1.64-7.26 4.18-10.24 7.19-2.15 2.18-4.05 4.59-5.82 7.09-1.47 2.09-3.1 4.1-4.19 6.43-1.05 2.23-2.14 4.44-3.08 6.71-1.57 3.82-3.51 7.49-4.4 11.59-.65 2.98-1.53 5.91-2.14 8.9-1.21 5.94-2.21 11.92-2.95 17.94-.49 3.97-.78 7.93-.74 11.94.02 1.97 0 3.94 0 6.41Z" stroke="#10140c" stroke-miterlimit="10" fill="none" stroke-width=".75px"/>
    <path d="M284.42 136.11c.25.8.11 1.55-.28 2.28-1.97 3.78-4.69 6.98-8.01 9.58-2.51 1.97-4.12 2.28-6 2.23-6.76.01-11.21-1.66-15.35-4.21-4.81-2.96-8.74-6.88-12.12-11.4-4.26-5.71-7.35-12.02-9.59-18.75-.15-.47-.36-.92-.5-1.39-.22-.79-.79-1.09-1.54-1.16-.85-.09-1.21.07-1.37.93-.55 2.91-1.68 5.66-2.46 8.5-1.01 3.66-2.97 6.87-4.97 10.04-1.73 2.75-4.02 4.97-6.68 6.83-2.02 1.42-4.22 1.83-6.62 1.48-1.92-.29-3.73-.88-5.42-1.87-1.66-.96-2.93-2.28-4.03-3.84-4.37-6.23-6.71-13.24-7.99-20.66-.38-2.18-.46-4.4-.67-6.61-.2-2.06-.37-4.12-.23-6.19.43-6.53.83-13.08 2.14-19.52 1.15-5.7 2.45-11.36 3.98-16.97 1.56-5.7 3.79-11.09 6.27-16.41 1.58-3.39 2.9-6.9 4.52-10.29 1.09-2.27 2.89-3.82 4.83-5.29.43-.33.91-.6 1.29-.98 1.29-1.29 2.85-2.1 4.57-2.64 3.16-.98 6.22-2.26 9.46-2.97 3.87-.84 7.69-.86 11.61-.02 4.77 1.02 9.11 2.82 13.06 5.7 2.5 1.83 5.14 3.49 7.52 5.51 3.91 3.32 6.95 7.39 9.93 11.52 3.36 4.67 5.92 9.78 8.3 14.99.82 1.8 1.68 3.57 2.53 5.35.8 1.71.97 3.43.55 5.32-.49 2.15-.74 4.36-.97 6.56-.92 8.8-.6 17.64-.53 26.45.05 5.21.58 10.43 1.69 15.55.68 3.13 1.29 6.27 2.16 9.36.28.99.61 1.98.92 2.96Z" fill="#fefff0" stroke-width="0"/>
    <path d="M270.12 150.21c1.88.05 3.49-.26 6-2.23 3.32-2.6 6.04-5.8 8.01-9.58.39-.73.53-1.48.28-2.28-.31-.98-.64-1.97-.92-2.96-.87-3.09-1.48-6.23-2.16-9.36-1.11-5.12-1.64-10.34-1.69-15.55-.07-8.81-.39-17.65.53-26.45.23-2.2.48-4.41.97-6.56.42-1.89.25-3.61-.55-5.32-.85-1.78-1.71-3.55-2.53-5.35-2.38-5.2-4.94-10.32-8.3-14.99-2.98-4.12-6.02-8.19-9.93-11.52-2.38-2.02-5.02-3.68-7.52-5.51-3.94-2.88-8.28-4.68-13.06-5.7-3.91-.84-7.73-.82-11.61.02-3.24.71-6.3 1.99-9.46 2.97-1.72.54-3.28 1.35-4.57 2.64-.38.38-.86.65-1.29.98-1.94 1.47-3.74 3.02-4.83 5.29-1.62 3.38-2.94 6.89-4.52 10.29-2.48 5.32-4.71 10.71-6.27 16.41-1.53 5.61-2.83 11.27-3.98 16.97-1.31 6.44-1.71 12.99-2.14 19.52-.14 2.07.03 4.13.23 6.19.21 2.21.29 4.43.67 6.61 1.28 7.42 3.62 14.43 7.99 20.66 1.1 1.56 2.37 2.88 4.03 3.84 1.69.99 3.5 1.58 5.42 1.87 2.4.35 4.6-.06 6.62-1.48 2.66-1.86 4.95-4.08 6.68-6.83 2-3.17 3.96-6.38 4.97-10.04.78-2.84 1.91-5.59 2.46-8.5.16-.86.52-1.02 1.37-.93.75.07 1.32.37 1.54 1.16.14.47.35.92.5 1.39 2.24 6.73 5.33 13.04 9.59 18.75 3.37 4.51 7.3 8.43 12.12 11.4 4.14 2.55 8.58 4.22 15.35 4.21Z" stroke="#10140c" stroke-miterlimit="10" fill="none" stroke-width=".75px"/>
    <path d="M197.5 137.85c.47.64 1 1.21 1.78 1.74-1.55.91-2.58 2.14-3.97 2.91-1.11.62-2.13 1.41-3.24 2.04-3.21 1.83-6.44 3.64-9.81 5.16-.92.41-1.89.74-2.86 1.02-.38.12-.73.26-1.08.43-1.36.64-2.75 1.17-4.26 1.42-.97.16-1.9.61-2.85.93-.14.05-.28.18-.4.16-1.25-.19-2.28.73-3.53.68-.77-.03-1.43.71-2.34.57-.76-.12-1.57-.09-2.23.5-.15.13-.48.06-.72.09-6.97 1.01-13.97.93-20.98.62-2.91-.13-5.79-.51-8.69-.72-1.11-.08-2.34-.35-3.43-.87-.18-.08-.38-.21-.54-.18-1.42.29-2.6-.76-3.99-.66-.65.05-1.02-.82-1.74-.58-1.1-.89-2.77-.12-3.76-1.33-.19-.24-.55-.19-.84-.2-.59-.03-1.16-.06-1.61-.58-.44-.52-1.18-.38-1.76-.55-2.29-.72-4.26-2.13-6.59-2.76-1.07-.28-2.08-.9-3.04-1.49-2.86-1.73-5.74-3.42-8.42-5.44-3.18-2.39-5.73-5.41-8.58-8.11-.59-.55-1.07-1.17-1.35-1.92-.34-.89-1.09-1.53-1.48-2.37-.66-1.42-1.28-2.87-1.8-4.35-.69-1.99-1.29-4-1.19-6.15.05-1.07-.74-2-.58-3.15.26-1.92.32-3.86.84-5.77.29-1.06.51-2.18.83-3.25.48-1.62.82-3.33 2.04-4.64.43-.46.28-1.16.61-1.63 1.26-1.87 2.02-4.07 3.74-5.62.67-.61.96-1.48 1.58-2.13 1.8-1.9 3.99-3.34 5.98-5 1.74-1.46 3.7-2.59 5.48-3.98 1.69-1.32 3.48-2.55 5.43-3.52 4.85-2.4 9.7-4.82 14.57-7.23.19-.09.32-.21.46-.53-1.08-.44-1.67-1.73-3.09-1.67-.35.01-.62-.3-.87-.54-.33-.33-.71-.48-1.19-.48-.54 0-1.1-.06-1.49-.52a.743.743 0 0 0-.67-.26c-.99.13-1.8-.38-2.65-.75-2.45-1.05-4.89-2.11-7.26-3.32-1.19-.61-2.27-1.39-3.4-2.09-.57-.35-1.1-.84-1.38-1.51-.05-.13-.1-.29-.21-.38-1.65-1.47-2.24-3.39-2.54-5.49-.16-1.08-.32-2.13.07-3.18.09-.23.13-.48.12-.72-.07-2.24.64-4.35 1.21-6.47.81-2.99 2.15-5.78 3.65-8.49.57-1.03 1.44-1.89 1.94-2.95.86-1.82 2.41-3.09 3.68-4.53 1.68-1.91 3.38-3.85 5.51-5.39 2.92-2.1 5.91-4.06 8.96-5.96 1.61-1.01 3.13-2.21 4.71-3.3.29-.19.55-.43.87-.57 2.76-1.19 5.21-2.97 7.95-4.21 3.33-1.49 6.6-3.19 10.04-4.4 3.63-1.27 7.46-1.73 11.35-1.28 1.28.15 2.55.32 3.84.37 3.64.13 7.03 1.23 10.4 2.55 2.73 1.07 5.25 2.52 7.59 4.25 2.41 1.77 4.28 3.96 5.28 6.9.82 2.4.56 4.62-.27 6.87-.39 1.05-.64 2.16-1.07 3.18a9.99 9.99 0 0 1-1.94 2.92c-1.12 1.18-2.18 2.48-3.48 3.41-2.38 1.7-4.64 3.63-7.59 4.41-1.07.29-2.09.84-3.11 1.3-1.43.66-2.9 1.24-4.37 1.76-1.55.54-2.94 1.58-4.67 1.63-.28 0-.57.17-.82.31-1.6.94-3.53.94-5.17 1.89-.68.39-1.75.29-2.61.68-1.16.52-2.46.68-3.69 1.05-.86.25-1.71.6-2.61.8-1.38.31-2.73.83-4.05 1.35-.8.31-.88.83-.55 1.64.39.96.92 1.46 2.06 1.79 1.65.49 3.51.38 5 1.47.25.18.66.15 1 .19.67.06 1.4-.13 1.93.49.06.06.18.08.28.09 3.7.32 6.94 1.96 10.18 3.58 2.2 1.09 4.49 2.06 6.47 3.55 1.49 1.13 3.07 2.12 4.4 3.46 1.17 1.17 1.64 2.68 2.07 4.16.28.98-.32 1.91-.98 2.68-1.35 1.59-3.03 2.79-4.76 3.93-1.6 1.05-3.16 2.15-4.78 3.15-1.08.66-2.23 1.18-3.44 1.63-.92.34-1.9.54-2.82.94-.84.37-1.86.41-2.76.83-1.03.48-2.24.46-3.25 1.05-.23.13-.59.05-.88.07-.67.02-1.31-.03-1.95.44-.42.3-1.17.08-1.72.26-1.67.55-3.46.52-5.12 1.09-.45.15-.78.4-1.07.74-.22.26-.25.55-.02.8.51.58.93.95 1.94.91 1.98-.1 3.83-.96 5.83-.78 1.16-.71 2.59-.14 3.69-.59 1.83-.76 3.66-.44 5.49-.57.25-.02.5.02.74-.03 4.07-.79 8.12.22 12.19.1 1.29.66 2.78.37 4.12.92.92.37 2 .58 2.99.66 1.3.11 2.46.71 3.74.76.6.03 1 .52 1.6.66 2.24.51 4.46 1.1 6.53 2.14.63.32.76.62.71 1.36-.23 3.04-.57 6.08-.79 9.12-.32 4.41-.03 8.77.58 13.12.95 6.73 2.75 13.22 6.1 19.2.82 1.46 1.64 2.92 2.63 4.28Z" fill="#fefff0" stroke-width="0"/>
    <path d="M199.28 139.59c-.78-.53-1.31-1.1-1.78-1.74-.99-1.36-1.81-2.82-2.63-4.28-3.35-5.98-5.15-12.47-6.1-19.2-.61-4.34-.9-8.7-.58-13.12.22-3.04.56-6.08.79-9.12.05-.74-.08-1.04-.71-1.36-2.07-1.04-4.29-1.63-6.53-2.14-.6-.14-1-.63-1.6-.66-1.28-.05-2.44-.65-3.74-.76-.99-.08-2.07-.29-2.99-.66-1.34-.55-2.83-.26-4.12-.92-4.06.12-8.11-.89-12.19-.1-.24.05-.49.01-.74.03-1.83.13-3.66-.19-5.49.57-1.1.45-2.53-.12-3.69.59-2-.18-3.85.68-5.83.78-1.01.04-1.43-.33-1.94-.91-.23-.25-.2-.54.02-.8.29-.34.62-.59 1.07-.74 1.66-.57 3.45-.54 5.12-1.09.55-.18 1.3.04 1.72-.26.64-.47 1.28-.42 1.95-.44.29-.02.65.06.88-.07 1.01-.59 2.22-.57 3.25-1.05.9-.42 1.92-.46 2.76-.83.92-.4 1.9-.6 2.82-.94 1.21-.45 2.36-.97 3.44-1.63 1.62-1 3.18-2.1 4.78-3.15 1.73-1.14 3.41-2.34 4.76-3.93.66-.77 1.26-1.7.98-2.68-.43-1.48-.9-2.99-2.07-4.16-1.33-1.34-2.91-2.33-4.4-3.46-1.98-1.49-4.27-2.46-6.47-3.55-3.24-1.62-6.48-3.26-10.18-3.58-.1-.01-.22-.03-.28-.09-.53-.62-1.26-.43-1.93-.49-.34-.04-.75-.01-1-.19-1.49-1.09-3.35-.98-5-1.47-1.14-.33-1.67-.83-2.06-1.79-.33-.81-.25-1.33.55-1.64 1.32-.52 2.67-1.04 4.05-1.35.9-.2 1.75-.55 2.61-.8 1.23-.37 2.53-.53 3.69-1.05.86-.39 1.93-.29 2.61-.68 1.64-.95 3.57-.95 5.17-1.89.25-.14.54-.31.82-.31 1.73-.05 3.12-1.09 4.67-1.63 1.47-.52 2.94-1.1 4.37-1.76 1.02-.46 2.04-1.01 3.11-1.3 2.95-.78 5.21-2.71 7.59-4.41 1.3-.93 2.36-2.23 3.48-3.41a9.99 9.99 0 0 0 1.94-2.92c.43-1.02.68-2.13 1.07-3.18.83-2.25 1.09-4.47.27-6.87-1-2.94-2.87-5.13-5.28-6.9-2.34-1.73-4.86-3.18-7.59-4.25-3.36-1.32-6.75-2.42-10.4-2.55-1.29-.05-2.56-.22-3.84-.37-3.88-.45-7.71.01-11.35 1.28-3.44 1.21-6.71 2.91-10.04 4.4-2.74 1.24-5.19 3.02-7.95 4.21-.32.14-.58.38-.87.57-1.58 1.09-3.1 2.29-4.71 3.3-3.05 1.9-6.04 3.86-8.96 5.96-2.13 1.54-3.83 3.48-5.51 5.39-1.27 1.44-2.82 2.71-3.68 4.53-.5 1.06-1.37 1.92-1.94 2.95-1.5 2.71-2.84 5.5-3.65 8.49-.57 2.12-1.28 4.23-1.21 6.47.01.24-.03.49-.12.72-.39 1.05-.23 2.1-.07 3.18.3 2.1.89 4.02 2.54 5.49.11.09.16.25.21.38.28.67.81 1.16 1.38 1.51 1.13.7 2.21 1.48 3.4 2.09 2.37 1.21 4.81 2.27 7.26 3.32.85.37 1.66.88 2.65.75.26-.03.5.06.67.26.39.46.95.52 1.49.52.48 0 .86.15 1.19.48.25.24.52.55.87.54 1.42-.06 2.01 1.23 3.09 1.67-.14.32-.27.44-.46.53-4.86 2.41-9.71 4.83-14.57 7.23-1.95.97-3.74 2.2-5.43 3.52-1.78 1.39-3.74 2.52-5.48 3.98-1.99 1.66-4.18 3.1-5.98 5-.62.65-.91 1.52-1.58 2.13-1.72 1.55-2.48 3.75-3.74 5.62-.33.47-.18 1.17-.61 1.63-1.22 1.31-1.56 3.02-2.04 4.64-.32 1.07-.54 2.19-.83 3.25-.52 1.91-.58 3.85-.84 5.77-.16 1.15.63 2.08.58 3.15-.1 2.15.5 4.16 1.19 6.15.52 1.48 1.14 2.93 1.8 4.35.39.84 1.14 1.48 1.48 2.37.28.75.76 1.37 1.35 1.92 2.85 2.7 5.4 5.72 8.58 8.11 2.68 2.02 5.56 3.71 8.42 5.44.96.59 1.97 1.21 3.04 1.49 2.33.63 4.3 2.04 6.59 2.76.58.17 1.32.03 1.76.55.45.52 1.02.55 1.61.58.29.01.65-.04.84.2.99 1.21 2.66.44 3.76 1.33.72-.24 1.09.63 1.74.58 1.39-.1 2.57.95 3.99.66.16-.03.36.1.54.18 1.09.52 2.32.79 3.43.87 2.9.21 5.78.59 8.69.72 7.01.31 14.01.39 20.98-.62.24-.03.57.04.72-.09.66-.59 1.47-.62 2.23-.5.91.14 1.57-.6 2.34-.57 1.25.05 2.28-.87 3.53-.68.12.02.26-.11.4-.16.95-.32 1.88-.77 2.85-.93 1.51-.25 2.9-.78 4.26-1.42.35-.17.7-.31 1.08-.43.97-.28 1.94-.61 2.86-1.02 3.37-1.52 6.6-3.33 9.81-5.16 1.11-.63 2.13-1.42 3.24-2.04 1.39-.77 2.42-2 3.97-2.91Z" stroke="#10140c" stroke-miterlimit="10" fill="none" stroke-width=".75px"/>
    <path d="M499.96 65.48c-.69.38-1.31.6-1.77 1-.69.59-1.5.94-2.28 1.36-.86.47-1.77.84-2.51 1.54-.56.53-1.6.06-2.12.83-1.72.21-3.07 1.3-4.6 1.96-.99.43-2.1.59-3 1.24-1.32.95-2.81 1.43-4.38 1.71-.15.03-.33.02-.42.11-1.04 1.05-2.55 1.12-3.8 1.74-1.07.53-2.23 1.07-3.55.98-.95-.07-1.94-.21-2.8.51-.21.18-.67.06-1.02.06-2.32 0-4.65-.06-6.97.03-1.07.04-2.03-.26-2.73-.9-.69-.63-1.87-.73-2.12-1.84-2.19-.99-2.16-3.02-2.45-4.97-.57-3.72.24-7.37.3-11.06.76-1 .28-2.39 1.06-3.4.24-.32.11-.77.11-1.16.01-.51 0-.97.73-1.02.55-.04.43-.57.45-.94.04-.6-.2-1.33.74-1.5.09-.02.17-.22.22-.35 1.45-3.38 3.69-6.24 5.97-9.09.98-1.23 1.87-2.53 3.08-3.57 1.93-1.66 3.85-3.32 5.88-4.87 1.17-.89 2.29-1.86 3.43-2.79 1.64-1.34 3.42-2.42 5.19-3.56 2.59-1.66 5.37-2.9 8.1-4.27 2.31-1.17 4.74-2.07 7.21-2.86 1.2-.38 2.31-1.05 3.55-1.38 1.42-.39 2.78-.93 3.9-1.94.15-.14.47-.08.71-.13.19-.04.52-.08.53-.15.15-1.37 1.43-.68 1.95-1.1 1-.82 2.38-.03 3.22-1.02.05-.06.19-.08.28-.06 1.46.35 2.69-.7 4.11-.65.71.03 1.2-.77 2.04-.58.72.16 1.42 0 2.05-.51.24-.2.77-.04 1.16-.06.76-.05 1.57.18 2.22-.49.13-.14.47-.09.71-.1 3.95-.15 7.9-.5 11.86-.37 2.67.09 5.33.41 8 .36.15 0 .33-.04.44.03 1.41.85 2.96.47 4.46.56.86.05 1.67.14 2.54.46.86.32 1.86.45 2.79.71 1.57.45 3.17.77 4.72 1.28 1.41.46 2.73 1.19 3.93 2.07.57.42 1.09.84 1.83.85.13 0 .29.09.39.18 1.63 1.5 3.59 2.6 5.01 4.35.29.35.56.68.61 1.15.05.52.35.91.7 1.27.3.31.59.31.89.02.21-.21.44-.4.64-.62.8-.89 1.76-1.55 2.81-2.13 1.2-.66 2.37-1.42 3.4-2.33.41-.36.86-.64 1.35-.89 1.32-.66 2.51-1.53 3.73-2.35.72-.48 1.43-1.05 2.37-1.06.25 0 .47-.11.69-.22 1.49-.78 2.98-1.55 4.73-1.56 1.08-1.14 2.81 0 3.92-1.12.13-.13.48-.05.72-.05 5.64-.17 11.27-.07 16.91 0 .57 0 1.18-.12 1.66.41.29.31.75.17 1.14.19.43.03.9-.07 1.21.38.15.22.43.19.68.21 1.45.11 2.83.43 3.92 1.48.1.1.24.21.37.23 2.03.22 3.4 1.67 5.02 2.66.46.28.93.56 1.43.75 1.78.69 3.06 2.13 4.66 3.08 2.46 1.45 4.43 3.52 6.17 5.68 1.73 2.15 3.97 3.85 5.35 6.28.14.25.38.46.59.66 1.09 1.01 1.85 2.25 2.65 3.5 1.69 2.63 2.99 5.44 4.35 8.22 1.33 2.73 2.49 5.55 3.51 8.42.57 1.6 1.17 3.22 1.9 4.78.49 1.04.84 2.2.97 3.44.15 1.47.33 2.99.68 4.4.51 2.02 1.03 3.98 1.08 6.09.13 4.88.43 9.76.32 14.64-.11 4.64-.26 9.27-.36 13.9-.02.79-.37 1.44-.75 2.06-.33.54-.45 1.07-.45 1.67 0 .87.21 1.79-.52 2.51-.03.03-.04.1-.03.14.37 1.97-.59 3.65-1.29 5.33-.42 1-.37 2.17-1.26 3.04-.57.56-.36 1.62-.94 2.28.18 1.65-1.24 2.72-1.55 4.2-.32 1.5-1.12 2.83-1.81 4.19-.31.61-.57 1.26-1.1 1.74-.11.1-.26.21-.28.34-.32 1.96-1.8 3.33-2.57 5.08-.49 1.12-1.44 2.09-2.18 3.12-1.73 2.41-3.93 4.38-5.77 6.69-1.7 2.14-3.72 4.05-5.92 5.76-1.64 1.27-3.39 2.39-5.11 3.5-2.2 1.41-4.28 3.24-7.05 3.58-.55.07-.6.61-.89.91-.46.47-.87 1.01-1.6.39-.26-.22-.43-.09-.47.23-.03.24-.05.64-.3.59-1.23-.23-2.19.69-3.36.68-.67 0-1.37-.15-1.94.46-.15.16-.56.1-.85.12-5.38.39-10.77.36-16.15 0-.43-.03-.88.07-1.23-.34-.29-.34-.73-.23-1.12-.26-.71-.04-1.46.18-2.06-.5-.16-.18-.66-.1-1-.09-.72.02-1.37 0-.93-1.43-1.11 1.02-1.77.85-2.4.05-.43-.55-1.02-.93-1.76-1-.61-.06-1.16-.38-1.6-.73-1.02-.81-2.19-1.34-3.34-1.9-1.35-.66-2.36-1.77-3.61-2.55-.62-.38-1.22-.86-1.86-1.19-1.61-.82-2.59-2.42-4.21-3.19-.2-.09-.29-.26-.33-.46-.13-.57-.56-.94-.97-1.28-2.22-1.85-3.72-4.33-5.72-6.38-1.7-1.74-3.13-3.72-4.06-6.02-.25-.62-.7-1.19-1.14-1.71-1.1-1.3-1.45-2.97-2.25-4.42-.79-1.42-1.53-2.88-2.17-4.37-.76-1.76-1.42-3.56-2.05-5.37-.25-.71-.6-1.32-.97-1.96-.82-1.42-1.43-2.94-1.47-4.62-.01-.43.11-.9-.31-1.23-.07-.06-.17-.16-.17-.23.16-1.35-.83-2.47-.72-3.82.06-.72.13-1.46-.45-2.1-.16-.18-.11-.56-.13-.86-.04-.48.1-.98-.38-1.36-.25-.19-.21-.54-.21-.83.12-4.99-.5-9.95-.44-14.94.06-4.64.49-9.26.48-13.9 0-.92.43-1.88.82-2.75.24-.53.28-1.03.31-1.56.04-.82-.11-1.65.48-2.4.2-.26.1-.76.12-1.15.04-.57-.1-1.17.44-1.64.27-.23.13-.66.15-1 .03-.48-.1-.99.42-1.33.12-.08.15-.35.16-.54.01-.34.12-.75-.15-.99-.3-.26-.65-.03-.96.14-1.46.82-3 1.49-4.4 2.44a13.43 13.43 0 0 1-3.48 1.7c.67.51.73 1.08.7 1.68-.02.44-.03.87.37 1.21.29.25.19.64.21.98.08 1.19-.21 2.4.52 3.56.29.46.05 1.25.08 1.89.03.92-.13 1.86.46 2.71.19.28.1.76.13 1.15.09 1.26-.13 2.55.52 3.76.21.39.06.97.08 1.46.04.82-.13 1.65.46 2.41.2.26.12.76.13 1.15.02 1.48.01 2.96.03 4.44 0 .73-.11 1.45.44 2.1.28.33.13.86.13 1.3.01 2.96.01 5.92.03 8.88 0 .78-.08 1.57.44 2.28.15.21.17.57.14.86-.16 1.73.46 3.53-.5 5.21-.17.3-.07.77-.07 1.17-.02 2.42-.01 4.83-.04 7.25-.01.91.25 1.86-.48 2.67-.18.2-.07.67-.07 1.01-.02 1.43-.02 2.86-.04 4.29 0 .53.08 1.09-.37 1.53-.1.1-.19.27-.17.39.26 1.46-.62 2.75-.63 4.18 0 .95.17 1.94-.51 2.83-.22.29-.07.86-.09 1.3-.03.48.07.99-.39 1.37-.24.2-.25.54-.21.83.15 1.14-.28 2.13-.82 3.08-.17.3-.34.6-.35.96-.05 1.27-.53 2.4-1.09 3.51-.02.04-.06.09-.06.13.1 2.29-1.81 3.73-2.46 5.71-.51 1.58-1.23 3.07-2.21 4.48-1.93 2.78-4.25 5.17-6.68 7.48-.11.1-.21.23-.34.28-1.9.59-3.48 1.75-5.07 2.87-.27.19-.55.2-.84.21h-1.93c-.61 0-1.37.21-1.37-.82-1.1-.49-1.81-1.51-2.86-2.06-2.73-1.44-5.09-3.38-7.1-5.69a36.28 36.28 0 0 1-3.65-5.01c-.58-.97-1.24-1.89-1.9-2.81-.2-.28-.46-.53-.44-.9.04-.6-.19-1.04-.66-1.4-.37-.29-.59-.67-.54-1.15.08-.77-.82-1.24-.61-2.04-.88-.92-.26-2.3-1.04-3.27-.16-.2-.14-.57-.13-.86.02-1.02-.31-1.95-.81-2.8-.29-.5-.36-1-.38-1.54-.04-1.1.01-2.16-.46-3.28-.4-.93-.12-2.14-.16-3.22-.03-.87-.04-1.68-.42-2.56-.37-.85-.17-1.94-.23-2.92-.08-1.26.04-2.5-.45-3.76-.31-.77-.09-1.75-.1-2.64 0-.58.12-1.17-.37-1.67-.29-.3-.17-.75-.17-1.14V99.94c0-.29-.07-.65.07-.87.72-1.14.43-2.39.46-3.6.03-1.03-.07-2.06.41-3.05.18-.37.09-.87.1-1.31.05-1.68.09-3.35.14-5.03 0-.2-.03-.44.06-.58.68-1.03.45-2.18.52-3.3.07-1.01-.06-2.01.48-3 .32-.58.09-1.45.12-2.19.04-.81-.21-1.69.5-2.37-.06-1.53.85-2.91.69-4.48-.07-.67.02-1.3.39-1.97.42-.76.17-1.7.12-2.73Z" stroke="#10140c" stroke-miterlimit="10" />
    <path d="M657.34 85.55c.03 3.55.05 7.12-.36 10.63-.52 4.38-1.23 8.75-2.39 13.04-1.28 4.71-2.78 9.35-4.79 13.82-4.47 9.91-10.66 18.54-19.27 25.32-5.31 4.18-11.24 7.13-17.8 8.78-2.16.54-4.33.99-6.58.98-1.17-.01-2.31.39-3.52.33-11.37-.57-21.16-4.85-29.61-12.36-7.71-6.85-13.28-15.2-17.32-24.61a85.068 85.068 0 0 1-5.93-20.7c-.43-2.8-.81-5.63-.97-8.49-.15-2.76.03-5.51-.24-8.26-.05-.53.06-1.08.11-1.62.07-.68.2-1.37.21-2.06.07-4.5.91-8.9 1.82-13.28a80.45 80.45 0 0 1 5.88-17.8c3.2-6.83 7.22-13.11 12.53-18.56 4.03-4.15 8.46-7.7 13.57-10.43 4.83-2.58 9.96-4.32 15.4-5.06 1.85-.25 3.72-.61 5.39-.41 2.66-.07 5 .31 7.33 1.11 2.24.76 4.59 1.14 6.83 1.95 7.35 2.66 13.56 6.99 18.98 12.56 6.88 7.05 11.74 15.33 15.13 24.5a91.123 91.123 0 0 1 4.21 15.53c.9 5 1.35 10.01 1.4 15.1Z" fill="#fefff0" stroke-width="0"/>
    <path d="M603.45 14.81c-1.67-.2-3.54.16-5.39.41-5.43.74-10.57 2.48-15.4 5.06-5.1 2.72-9.53 6.27-13.57 10.43-5.3 5.45-9.32 11.73-12.53 18.56a80.45 80.45 0 0 0-5.88 17.8c-.91 4.37-1.75 8.77-1.82 13.28-.01.69-.14 1.38-.21 2.06-.05.54-.16 1.09-.11 1.62.27 2.75.09 5.5.24 8.26.16 2.86.54 5.69.97 8.49 1.1 7.13 3.07 14.05 5.93 20.7 4.04 9.41 9.6 17.76 17.32 24.61 8.45 7.5 18.25 11.79 29.61 12.36 1.21.06 2.35-.34 3.52-.33 2.25.01 4.42-.44 6.58-.98 6.56-1.65 12.49-4.6 17.8-8.78 8.61-6.78 14.8-15.41 19.27-25.32 2.01-4.46 3.51-9.1 4.79-13.82 1.16-4.28 1.87-8.65 2.39-13.04.41-3.5.39-7.07.36-10.63-.05-5.08-.5-10.09-1.4-15.1a91.374 91.374 0 0 0-4.21-15.53c-3.39-9.17-8.24-17.45-15.13-24.5-5.42-5.56-11.63-9.89-18.98-12.56-2.24-.81-4.59-1.19-6.83-1.95-2.33-.8-4.67-1.18-7.33-1.11Z" stroke="#10140c" stroke-miterlimit="10" fill="none" stroke-width=".75px"/>
    <path d="M567.46 27.04c.25.65-.32 2.24-1.13 2.66-.66.35-1 .86-1.39 1.42s-.92 1.03-1.37 1.55c-1.98 2.31-3.98 4.57-5.43 7.33-1.19 2.25-2.44 4.49-3.61 6.77-.62 1.23-1.04 2.54-1.61 3.8-.64 1.42-1.58 2.47-2.91 3.22-2.54 1.43-5.07 2.88-7.61 4.3-1.29.73-2.61 1.38-3.8 2.29-.93.71-1.19 1.54-1.01 2.71.61 3.78 1.29 7.55 1.8 11.36.33 2.43.71 4.87.99 7.3.25 2.24.39 4.51.38 6.78 0 .83-.06 1.68.39 2.45.07.12.12.29.1.42-.29 2.33.53 4.6.3 6.93-.28 2.71.6 5.4.32 8.1-.33 3.23-.25 6.48-.6 9.72-.21 1.84-.43 3.71-.48 5.57-.11 3.8-.75 7.53-1.33 11.28-.85 5.59-2.9 10.86-4.73 16.15-2.07 5.97-6.07 10.42-11.57 13.56-1.71.97-3.24.97-4.83-.17-1.92-1.39-3.84-2.78-5.67-4.28-4.03-3.3-6.42-7.67-8.26-12.42-1.82-4.67-2.96-9.51-3.61-14.46-.44-3.36-.69-6.76-1.17-10.1-.38-2.6-.15-5.2-.59-7.78-.2-1.2-.08-2.45-.09-3.69-.01-2.56-.04-5.12 0-7.69.05-2.6.01-5.26.39-7.8.47-3.21.6-6.44.95-9.65.53-5.05 1.63-10 2.32-15.04.22-1.6.35-3.21.6-4.81.1-.63.12-1.28.07-1.92-.1-1.3-.97-1.9-2.25-1.63-.59.13-1.1.43-1.6.75-7.52 4.73-15.61 8.29-23.95 11.27-4.58 1.62-9.36 2.4-14.28 2.02-3.36-.25-5.13-2.16-5.42-5.47a26.2 26.2 0 0 1-.03-4.43c.26-3.24 1.06-6.31 2.08-9.34 1.81-5.39 4.98-9.89 8.91-13.98 5.7-5.93 12.19-10.81 19.38-14.74 2.77-1.52 5.6-2.95 8.54-4.1 1.42-.56 2.96-.82 4.36-1.39 4.72-1.93 9.51-3.65 14.52-4.62 4.31-.83 8.6-1.82 12.97-2.32 1.71-.2 3.46-.03 4.79-.03 4.42-.29 8.37.41 12.34.93 2.95.38 5.9.7 8.72 1.62 3.95 1.29 7.81 2.78 11.37 5 1.8 1.12 3.02 2.65 3.76 4.6Z" fill="#fefff0" stroke-width="0"/>
    <path d="M531.27 14.88c-1.33 0-3.08-.17-4.79.03-4.36.5-8.65 1.49-12.97 2.32-5 .97-9.79 2.69-14.52 4.62-1.4.57-2.94.83-4.36 1.39-2.94 1.15-5.77 2.58-8.54 4.1-7.19 3.93-13.68 8.8-19.38 14.74-3.93 4.08-7.1 8.58-8.91 13.98-1.02 3.03-1.82 6.1-2.08 9.34a26.2 26.2 0 0 0 .03 4.43c.29 3.31 2.06 5.22 5.42 5.47 4.91.38 9.69-.4 14.28-2.02 8.34-2.97 16.43-6.53 23.95-11.27.5-.32 1.01-.62 1.6-.75 1.28-.27 2.15.33 2.25 1.63.05.64.03 1.29-.07 1.92-.25 1.6-.38 3.21-.6 4.81-.69 5.03-1.79 9.98-2.32 15.04-.35 3.21-.48 6.44-.95 9.65-.38 2.54-.34 5.2-.39 7.8-.04 2.57-.01 5.13 0 7.69.01 1.24-.11 2.49.09 3.69.44 2.58.21 5.18.59 7.78.48 3.34.73 6.74 1.17 10.1.65 4.94 1.79 9.78 3.61 14.46 1.84 4.74 4.23 9.11 8.26 12.42 1.83 1.5 3.75 2.89 5.67 4.28 1.59 1.14 3.12 1.14 4.83.17 5.49-3.14 9.49-7.58 11.57-13.56 1.83-5.29 3.88-10.56 4.73-16.15.58-3.74 1.22-7.47 1.33-11.28.05-1.86.27-3.73.48-5.57.35-3.24.27-6.49.6-9.72.28-2.7-.6-5.39-.32-8.1.23-2.33-.59-4.6-.3-6.93.02-.13-.03-.3-.1-.42-.45-.77-.39-1.62-.39-2.45.01-2.27-.13-4.54-.38-6.78-.28-2.43-.66-4.87-.99-7.3-.51-3.8-1.19-7.57-1.8-11.36-.18-1.17.08-2 1.01-2.71 1.19-.91 2.51-1.56 3.8-2.29 2.54-1.42 5.07-2.87 7.61-4.3 1.33-.75 2.27-1.8 2.91-3.22.57-1.26.99-2.57 1.61-3.8 1.17-2.28 2.42-4.52 3.61-6.77 1.45-2.76 3.45-5.02 5.43-7.33.45-.52.98-.99 1.37-1.55s.73-1.07 1.39-1.42c.81-.42 1.38-2.01 1.13-2.66-.74-1.95-1.96-3.48-3.76-4.6-3.55-2.22-7.41-3.71-11.37-5-2.82-.92-5.77-1.24-8.72-1.62-3.96-.52-7.91-1.22-12.34-.93Z" stroke="#10140c" stroke-miterlimit="10" fill="none" stroke-width=".75px"/>
    <path d="M229.53 75.12c.07-3.65.24-7.29 1.24-10.83.22-.8.23-1.66.36-2.48.23-1.49.9-2.81 1.71-4.06.27-.42.61-.78 1.06-1.01.89-.46 1.73.02 1.75 1.02.01.7-.2 1.37-.46 2-1.6 3.92-2.1 8.08-2.75 12.22-.39 2.5-.41 5-.37 7.51 0 .64.03 1.29-.21 1.9-.3.77-.91.92-1.48.32-.61-.63-.85-1.42-.84-2.3.02-1.43 0-2.86 0-4.29Zm91.58-33.71c1.07.04 1.52.64 1.06 1.61-.93 1.97-1.4 4.1-2.31 6.07-1.25 2.71-1.81 5.59-2.33 8.51-.59 3.31-.76 6.65-1.14 9.97-.22 1.9-.3 3.83.18 5.73.23.92-.34 1.59-.88 2.23-.23.28-.52.18-.78-.02-.41-.32-.61-.76-.74-1.25-.2-.77-.26-1.55-.29-2.34 0-.3.1-.63 0-.88-.69-1.65-.04-3.26.08-4.89.12-1.67.13-3.34.37-5.01.59-4.04 1.1-8.1 2.54-11.96.83-2.21 1.76-4.38 2.66-6.56.3-.73.74-1.29 1.58-1.21Zm279.24 43.52c-.04 3.72.41 6.87 1.16 9.99.27 1.13.85 1.96 1.79 2.61.49.33.99.64 1.33 1.15.51.76.53 1.13.01 1.71-.57.64-1.29.76-1.98.34-.08-.05-.17-.1-.24-.17-2.59-2.53-4.82-5.25-4.74-9.15.02-1.04-.63-1.93-.54-3.01.11-1.27.1-2.52.4-3.79.34-1.42.23-2.94.41-4.4.29-2.43 1.36-4.5 3.07-6.23.2-.2.47-.38.74-.47.5-.18.99-.08 1.37.31.34.35.16.74 0 1.1-.2.45-.38.91-.63 1.33-1.69 2.84-2.37 5.91-2.15 8.7Z" stroke="#10140c" stroke-miterlimit="10"/>
  </g>
</svg>